# xmcd
#
# Track frame offsets:
# 180
# 24160
# 44565
# 66095
# 84840
# 99675
# 124405
# 139075
# 155037
# 184085
#
# Disc length: 2596 seconds
#
#
# Revision: 3
# Processed by: cddbd v1.5PL3 Copyright (c) Steve Scherf et al.
# Submitted via: FreeRIP 2.60 
#
DISCID=850a220a
DTITLE=Mount Moriah - Harlem Sunday
DYEAR=1900
DGENRE=
TTITLE0=Right On
TTITLE1=Keep Faith
TTITLE2=Why We Sing
TTITLE3=Like A Ship
TTITLE4=The Lord Is My Light
TTITLE5=We Are Not Ashamed
TTITLE6=I'm Blessed
TTITLE7=Jesus, Oh What a Wonderful Child
TTITLE8=Have you Heard
TTITLE9=Hallellujah Anyhow
EXTD=
EXTT0=
EXTT1=
EXTT2=
EXTT3=
EXTT4=
EXTT5=
EXTT6=
EXTT7=
EXTT8=
EXTT9=
PLAYORDER=
